<svg width="32" height="32" viewBox="0 0 193 189" fill="none" xmlns="http://www.w3.org/2000/svg">
<path d="M0 23C0 10.2975 10.2975 0 23 0H166C178.703 0 189 10.2975 189 23V99.3748C189 105.826 186.29 111.981 181.532 116.338L147.5 147.5L109.626 182.821C105.368 186.792 99.7621 189 93.9396 189H23C10.2975 189 0 178.703 0 166V23Z" fill="#FFB703"/>
<path d="M103.614 175.947C97.8329 181.054 88.7269 176.997 88.6568 169.284L88.0825 106.082C88.0371 101.079 92.0796 97 97.0822 97L169.215 97C177.504 97 181.386 107.258 175.173 112.746L103.614 175.947Z" fill="white"/>
</svg>
